# xmcd
# Copyright (C) 1995-1998 Ti Kan
#
# Track frame offsets:
#       150
#       15884
#       24860
#       40076
#       71953
#       95956
#       105158
#       125525
#       150003
#       167953
#       186974
#       221132
#       231786
#       250592
#       284166
#       301759
#
# Disc length: 4308 seconds
#
# Revision: 1
# Processed by: cddbd v1.5.2PL0 Copyright (c) Steve Scherf et al.
# Submitted via: CD-Transfer v1.0
#
DISCID=cf10d210
DTITLE=Ten Years After - Alvin Lee
DYEAR=70
DGENRE=
TTITLE0=Bad Scene
TTITLE1=Two Time Mama
TTITLE2=Stoned Woman
TTITLE3=Good Morning Little Schoolgirl
TTITLE4=If You Should Love Me
TTITLE5=I Don't Know That You Don't Know My Name
TTITLE6=Stomp, The
TTITLE7=I Woke Up This Morning
TTITLE8=Sugar The Road
TTITLE9=Working On The Road
TTITLE10=50000 Miles Beneath My Brain
TTITLE11=Year 3000 Blues
TTITLE12=Me And My Baby
TTITLE13=Love Like A Man
TTITLE14=Circles
TTITLE15=As The Sun Still Burns Away
EXTD=
EXTT0=
EXTT1=
EXTT2=
EXTT3=
EXTT4=
EXTT5=
EXTT6=
EXTT7=
EXTT8=
EXTT9=
EXTT10=
EXTT11=
EXTT12=
EXTT13=
EXTT14=
EXTT15=
PLAYORDER=
